<?xml version="1.0" encoding="UTF-8" standalone="no"?>
<!DOCTYPE svg PUBLIC "-//W3C//DTD SVG 1.1//EN" "http://www.w3.org/Graphics/SVG/1.1/DTD/svg11.dtd">
<svg width="100%" height="100%" viewBox="0 0 1000 1000" version="1.1" xmlns="http://www.w3.org/2000/svg" xmlns:xlink="http://www.w3.org/1999/xlink" xml:space="preserve" xmlns:serif="http://www.serif.com/" style="fill-rule:evenodd;clip-rule:evenodd;stroke-linejoin:round;stroke-miterlimit:2;">
    <path d="M481.922,644.102C439.809,642.851 376.64,642.225 292.416,642.225C184.083,642.225 105.472,643.059 56.583,644.725L56.583,628.059L309.083,73.892L267.416,73.892C241.305,73.892 215.194,79.586 189.083,90.975C162.972,102.364 139.916,121.531 119.916,148.475C99.916,175.42 86.861,210.836 80.75,254.725L61.583,254.725C63.25,240.281 64.083,220.281 64.083,194.725C64.083,153.614 62.139,106.948 58.25,54.725C92.694,56.392 150.75,57.225 232.416,57.225C352.416,57.225 439.361,56.392 493.25,54.725L493.25,71.392L240.75,625.559L275.75,625.559C298.528,625.559 324.639,619.031 354.083,605.975C383.528,592.92 410.194,571.531 434.083,541.809C457.905,512.17 472.335,474.382 477.374,428.444L477.339,428.334C474.283,418.89 468.867,412.501 461.089,409.168C453.311,405.834 440.533,403.612 422.756,402.501L422.756,385.834C454.422,387.501 502.2,388.334 566.089,388.334L661.922,387.501C673.033,386.945 685.811,386.668 700.256,386.668C773.589,386.668 829.561,398.473 868.172,422.084C906.783,445.695 926.089,477.501 926.089,517.501C926.089,538.056 918.867,558.751 904.422,579.584C889.978,600.418 868.311,618.612 839.422,634.168C810.533,649.723 775.256,660.001 733.589,665.001L733.589,666.668C788.033,669.445 832.895,678.056 868.172,692.501C903.45,706.945 929.145,724.862 945.256,746.251C961.367,767.64 969.422,790.279 969.422,814.168C969.422,868.612 947.756,909.168 904.422,935.834C861.089,962.501 799.422,975.834 719.422,975.834C703.311,975.834 689.7,975.556 678.589,975.001C640.811,973.89 603.867,973.334 567.756,973.334C502.756,973.334 454.422,974.168 422.756,975.834L422.756,959.168C440.533,958.056 453.45,955.834 461.506,952.501C469.561,949.168 474.978,942.779 477.756,933.334C480.533,923.89 481.922,908.612 481.922,887.501L481.922,644.102ZM705.256,956.668C764.7,956.668 794.422,908.056 794.422,810.834C794.422,766.945 783.867,733.612 762.756,710.834C741.645,688.056 708.311,676.668 662.756,676.668L651.089,676.668L651.089,887.501C651.089,907.501 652.478,922.223 655.256,931.668C658.033,941.112 663.172,947.64 670.672,951.251C678.172,954.862 689.7,956.668 705.256,956.668ZM696.089,402.501C683.311,402.501 673.728,404.445 667.339,408.334C660.95,412.223 656.645,419.168 654.422,429.168C652.2,439.168 651.089,454.168 651.089,474.168L651.089,662.501L673.589,662.501C703.589,662.501 724.561,650.14 736.506,625.418C748.45,600.695 754.422,567.779 754.422,526.668C754.422,484.445 749.839,453.195 740.672,432.918C731.506,412.64 716.645,402.501 696.089,402.501Z" style="fill-rule:nonzero;"/>
    <path d="M833.867,659.838C839.147,657.464 844.251,654.948 849.182,652.293C881.337,634.979 905.262,614.502 921.34,591.314C938.483,566.588 946.675,541.897 946.675,517.501C946.675,470.289 924.484,432.39 878.912,404.522C837.796,379.379 778.347,366.082 700.256,366.082C685.608,366.082 672.63,366.363 661.321,366.92C661.324,366.92 566.001,367.748 566.001,367.748C502.638,367.748 455.251,366.93 423.838,365.277L402.17,364.137L402.17,421.84L421.472,423.047C436.051,423.958 446.601,425.355 452.98,428.089C454.456,428.722 455.503,429.826 456.306,431.252C451.296,470.562 438.717,503.183 418.038,528.912C396.411,555.819 372.395,575.337 345.739,587.156C319.402,598.834 296.123,604.973 275.75,604.973L272.751,604.973C324.774,490.799 511.983,79.927 511.983,79.927L513.836,75.861L513.836,33.493L492.613,34.149C438.856,35.812 352.124,36.64 232.416,36.64C151.216,36.64 93.492,35.821 59.245,34.164L35.992,33.038L37.721,56.254C41.567,107.906 43.497,154.063 43.497,194.725C43.497,219.275 42.734,238.49 41.133,252.366L38.485,275.311L98.668,275.311L101.139,257.564C106.7,217.622 118.245,185.266 136.446,160.745C154.089,136.976 174.279,119.891 197.313,109.844C220.686,99.65 244.043,94.478 267.416,94.478L277.081,94.478C277.081,94.478 35.997,623.59 35.997,623.59L35.997,666.025L57.284,665.299C106.028,663.638 184.405,662.811 292.416,662.811C363.968,662.811 420.275,663.262 461.337,664.167L461.337,887.501C461.337,905.924 460.431,919.284 458.006,927.526C457.19,930.302 456.003,932.499 453.635,933.479C446.962,936.241 436.198,937.701 421.472,938.622L402.17,939.828L402.17,997.532L423.838,996.392C455.268,994.737 503.241,993.92 567.756,993.92C603.604,993.92 640.279,994.471 677.779,995.572C689.13,996.134 703.011,996.42 719.422,996.42C804.153,996.42 869.316,981.61 915.211,953.366C964.853,922.818 990.008,876.538 990.008,814.168C990.008,785.951 980.728,759.129 961.699,733.865C943.718,709.995 915.343,689.571 875.973,673.45C863.14,668.196 849.104,663.651 833.867,659.838ZM481.922,644.102C439.809,642.851 376.64,642.225 292.416,642.225C184.083,642.225 105.472,643.059 56.583,644.725L56.583,628.059L309.083,73.892L267.416,73.892C241.305,73.892 215.194,79.586 189.083,90.975C162.972,102.364 139.916,121.531 119.916,148.475C99.916,175.42 86.861,210.836 80.75,254.725L61.583,254.725C63.25,240.281 64.083,220.281 64.083,194.725C64.083,153.614 62.139,106.948 58.25,54.725C92.694,56.392 150.75,57.225 232.416,57.225C352.416,57.225 439.361,56.392 493.25,54.725L493.25,71.392L240.75,625.559L275.75,625.559C298.528,625.559 324.639,619.031 354.083,605.975C383.528,592.92 410.194,571.531 434.083,541.809C457.905,512.17 472.335,474.382 477.374,428.444L477.339,428.334C474.283,418.89 468.867,412.501 461.089,409.168C453.311,405.834 440.533,403.612 422.756,402.501L422.756,385.834C454.422,387.501 502.2,388.334 566.089,388.334L661.922,387.501C673.033,386.945 685.811,386.668 700.256,386.668C773.589,386.668 829.561,398.473 868.172,422.084C906.783,445.695 926.089,477.501 926.089,517.501C926.089,538.056 918.867,558.751 904.422,579.584C889.978,600.418 868.311,618.612 839.422,634.168C810.533,649.723 775.256,660.001 733.589,665.001L733.589,666.668C788.033,669.445 832.895,678.056 868.172,692.501C903.45,706.945 929.145,724.862 945.256,746.251C961.367,767.64 969.422,790.279 969.422,814.168C969.422,868.612 947.756,909.168 904.422,935.834C861.089,962.501 799.422,975.834 719.422,975.834C703.311,975.834 689.7,975.556 678.589,975.001C640.811,973.89 603.867,973.334 567.756,973.334C502.756,973.334 454.422,974.168 422.756,975.834L422.756,959.168C440.533,958.056 453.45,955.834 461.506,952.501C469.561,949.168 474.978,942.779 477.756,933.334C480.533,923.89 481.922,908.612 481.922,887.501L481.922,644.102ZM705.256,956.668C764.7,956.668 794.422,908.056 794.422,810.834C794.422,766.945 783.867,733.612 762.756,710.834C741.645,688.056 708.311,676.668 662.756,676.668L651.089,676.668L651.089,887.501C651.089,907.501 652.478,922.223 655.256,931.668C658.033,941.112 663.172,947.64 670.672,951.251C678.172,954.862 689.7,956.668 705.256,956.668ZM671.675,697.417C705.682,698.636 731.231,707.105 747.657,724.828C765.751,744.35 773.837,773.218 773.837,810.834C773.837,892.052 754.915,936.082 705.256,936.082C693.758,936.082 685.147,935.372 679.603,932.703C677.122,931.508 675.924,928.983 675.005,925.859C672.594,917.662 671.675,904.859 671.675,887.501L671.675,697.417ZM696.089,402.501C683.311,402.501 673.728,404.445 667.339,408.334C660.95,412.223 656.645,419.168 654.422,429.168C652.2,439.168 651.089,454.168 651.089,474.168L651.089,662.501L673.589,662.501C703.589,662.501 724.561,650.14 736.506,625.418C748.45,600.695 754.422,567.779 754.422,526.668C754.422,484.445 749.839,453.195 740.672,432.918C731.506,412.64 716.645,402.501 696.089,402.501ZM696.089,423.087C708.146,423.087 716.537,429.503 721.914,441.397C730.244,459.823 733.837,488.301 733.837,526.668C733.837,564.02 728.822,594 717.97,616.462C709.602,633.781 694.605,641.915 673.589,641.915L671.675,641.915C671.675,641.915 671.675,474.168 671.675,474.168C671.675,456.157 672.517,442.638 674.518,433.633C675.287,430.173 675.832,427.264 678.043,425.919C682.021,423.497 688.132,423.087 696.089,423.087Z" style="fill:white;"/>
</svg>
