<?xml version="1.0" encoding="UTF-8" standalone="no"?>
<!DOCTYPE svg PUBLIC "-//W3C//DTD SVG 1.1//EN" "http://www.w3.org/Graphics/SVG/1.1/DTD/svg11.dtd">
<svg width="100%" height="100%" viewBox="0 0 3000 3000" version="1.1" xmlns="http://www.w3.org/2000/svg" xmlns:xlink="http://www.w3.org/1999/xlink" xml:space="preserve" xmlns:serif="http://www.serif.com/" style="fill-rule:evenodd;clip-rule:evenodd;stroke-linecap:round;stroke-linejoin:round;stroke-miterlimit:1.5;">
    <g transform="matrix(1.21123,0,0,1.21123,-410.495,-385.44)">
        <g transform="matrix(1,0,0,1,-134.862,-196.164)">
            <path d="M595.188,1883.33C597.803,1679.32 612.679,917.388 855.922,833.691C1099.16,749.995 1253.99,852.817 1500,902.512C1746.01,952.207 1820.98,863.417 2052.9,803.191C2284.81,742.966 2692.83,946.976 2794.84,1090.83C2896.84,1234.68 2766.57,1714.12 2674.52,1875.48C2462.66,2246.89 2601.81,2111.09 2440.7,2469.57C2328.14,2720.01 1441.63,2879.85 1022.66,2646.91C540.174,2378.65 592.572,2087.34 595.188,1883.33Z" style="fill:rgb(235,231,224);"/>
        </g>
        <g>
            <g transform="matrix(1,0,0,1,-95.4664,-196.164)">
                <circle cx="1595.47" cy="1696.16" r="950.741" style="fill:none;stroke:black;stroke-width:10.32px;"/>
            </g>
            <g transform="matrix(0.925722,0,0,0.942228,23.0414,-98.1737)">
                <circle cx="1595.47" cy="1696.16" r="950.741" style="fill:none;stroke:black;stroke-width:11.05px;"/>
            </g>
            <g transform="matrix(0.271508,0,0,0.276349,1066.82,1031.27)">
                <circle cx="1595.47" cy="1696.16" r="950.741" style="fill:none;stroke:black;stroke-width:37.67px;"/>
            </g>
            <g transform="matrix(0.0576542,0,0,0.0586822,1408.01,1400.47)">
                <circle cx="1595.47" cy="1696.16" r="950.741" style="fill:none;stroke:black;stroke-width:177.41px;"/>
            </g>
            <path d="M1483.33,1477.11L1483.33,674.716C1483.33,665.517 1490.8,658.049 1500,658.049C1509.2,658.049 1516.67,665.517 1516.67,674.716L1516.67,1477.11C1523.37,1482.18 1527.77,1490.21 1527.99,1499.3L1932.63,1732.92C1937.7,1735.85 1938.08,1744.69 1933.48,1752.66C1928.88,1760.62 1921.03,1764.72 1915.97,1761.79L1509.17,1526.93C1506.3,1527.94 1503.21,1528.49 1500,1528.49C1484.55,1528.49 1472.01,1515.73 1472.01,1500C1472.01,1490.63 1476.46,1482.31 1483.33,1477.11Z" style="fill:none;stroke:black;stroke-width:10.32px;stroke-linecap:butt;stroke-miterlimit:2;"/>
            <g>
                <g transform="matrix(0.866025,0.5,-0.5,0.866025,950.962,-549.038)">
                    <path d="M1481.35,684.711L1481.35,810.055C1481.35,820.35 1489.7,828.708 1500,828.708C1510.3,828.708 1518.65,820.35 1518.65,810.055L1518.65,684.711C1518.65,674.416 1510.3,666.057 1500,666.057C1489.7,666.057 1481.35,674.416 1481.35,684.711ZM1491.67,684.711L1491.67,810.055C1491.67,814.654 1495.4,818.388 1500,818.388C1504.6,818.388 1508.33,814.654 1508.33,810.055L1508.33,684.711C1508.33,680.112 1504.6,676.378 1500,676.378C1495.4,676.378 1491.67,680.112 1491.67,684.711Z"/>
                </g>
                <g transform="matrix(0.5,0.866025,-0.866025,0.5,2049.04,-549.038)">
                    <path d="M1481.35,684.711L1481.35,810.055C1481.35,820.35 1489.7,828.708 1500,828.708C1510.3,828.708 1518.65,820.35 1518.65,810.055L1518.65,684.711C1518.65,674.416 1510.3,666.057 1500,666.057C1489.7,666.057 1481.35,674.416 1481.35,684.711ZM1491.67,684.711L1491.67,810.055C1491.67,814.654 1495.4,818.388 1500,818.388C1504.6,818.388 1508.33,814.654 1508.33,810.055L1508.33,684.711C1508.33,680.112 1504.6,676.378 1500,676.378C1495.4,676.378 1491.67,680.112 1491.67,684.711Z"/>
                </g>
                <g transform="matrix(1.18794e-14,1,-1,1.18794e-14,3000,-1.79625e-11)">
                    <path d="M1481.35,684.711L1481.35,810.055C1481.35,820.35 1489.7,828.708 1500,828.708C1510.3,828.708 1518.65,820.35 1518.65,810.055L1518.65,684.711C1518.65,674.416 1510.3,666.057 1500,666.057C1489.7,666.057 1481.35,674.416 1481.35,684.711ZM1491.67,684.711L1491.67,810.055C1491.67,814.654 1495.4,818.388 1500,818.388C1504.6,818.388 1508.33,814.654 1508.33,810.055L1508.33,684.711C1508.33,680.112 1504.6,676.378 1500,676.378C1495.4,676.378 1491.67,680.112 1491.67,684.711Z"/>
                </g>
                <g transform="matrix(-0.5,0.866025,-0.866025,-0.5,3549.04,950.962)">
                    <path d="M1481.35,684.711L1481.35,810.055C1481.35,820.35 1489.7,828.708 1500,828.708C1510.3,828.708 1518.65,820.35 1518.65,810.055L1518.65,684.711C1518.65,674.416 1510.3,666.057 1500,666.057C1489.7,666.057 1481.35,674.416 1481.35,684.711ZM1491.67,684.711L1491.67,810.055C1491.67,814.654 1495.4,818.388 1500,818.388C1504.6,818.388 1508.33,814.654 1508.33,810.055L1508.33,684.711C1508.33,680.112 1504.6,676.378 1500,676.378C1495.4,676.378 1491.67,680.112 1491.67,684.711Z"/>
                </g>
                <g transform="matrix(-0.866025,0.5,-0.5,-0.866025,3549.04,2049.04)">
                    <path d="M1481.35,684.711L1481.35,810.055C1481.35,820.35 1489.7,828.708 1500,828.708C1510.3,828.708 1518.65,820.35 1518.65,810.055L1518.65,684.711C1518.65,674.416 1510.3,666.057 1500,666.057C1489.7,666.057 1481.35,674.416 1481.35,684.711ZM1491.67,684.711L1491.67,810.055C1491.67,814.654 1495.4,818.388 1500,818.388C1504.6,818.388 1508.33,814.654 1508.33,810.055L1508.33,684.711C1508.33,680.112 1504.6,676.378 1500,676.378C1495.4,676.378 1491.67,680.112 1491.67,684.711Z"/>
                </g>
                <g transform="matrix(-1,2.35922e-14,-2.35922e-14,-1,3000,3000)">
                    <path d="M1481.35,684.711L1481.35,810.055C1481.35,820.35 1489.7,828.708 1500,828.708C1510.3,828.708 1518.65,820.35 1518.65,810.055L1518.65,684.711C1518.65,674.416 1510.3,666.057 1500,666.057C1489.7,666.057 1481.35,674.416 1481.35,684.711ZM1491.67,684.711L1491.67,810.055C1491.67,814.654 1495.4,818.388 1500,818.388C1504.6,818.388 1508.33,814.654 1508.33,810.055L1508.33,684.711C1508.33,680.112 1504.6,676.378 1500,676.378C1495.4,676.378 1491.67,680.112 1491.67,684.711Z"/>
                </g>
                <g transform="matrix(-0.866025,-0.5,0.5,-0.866025,2049.04,3549.04)">
                    <path d="M1481.35,684.711L1481.35,810.055C1481.35,820.35 1489.7,828.708 1500,828.708C1510.3,828.708 1518.65,820.35 1518.65,810.055L1518.65,684.711C1518.65,674.416 1510.3,666.057 1500,666.057C1489.7,666.057 1481.35,674.416 1481.35,684.711ZM1491.67,684.711L1491.67,810.055C1491.67,814.654 1495.4,818.388 1500,818.388C1504.6,818.388 1508.33,814.654 1508.33,810.055L1508.33,684.711C1508.33,680.112 1504.6,676.378 1500,676.378C1495.4,676.378 1491.67,680.112 1491.67,684.711Z"/>
                </g>
                <g transform="matrix(-0.5,-0.866025,0.866025,-0.5,950.962,3549.04)">
                    <path d="M1481.35,684.711L1481.35,810.055C1481.35,820.35 1489.7,828.708 1500,828.708C1510.3,828.708 1518.65,820.35 1518.65,810.055L1518.65,684.711C1518.65,674.416 1510.3,666.057 1500,666.057C1489.7,666.057 1481.35,674.416 1481.35,684.711ZM1491.67,684.711L1491.67,810.055C1491.67,814.654 1495.4,818.388 1500,818.388C1504.6,818.388 1508.33,814.654 1508.33,810.055L1508.33,684.711C1508.33,680.112 1504.6,676.378 1500,676.378C1495.4,676.378 1491.67,680.112 1491.67,684.711Z"/>
                </g>
                <g transform="matrix(-3.54716e-14,-1,1,-3.54716e-14,5.28644e-11,3000)">
                    <path d="M1481.35,684.711L1481.35,810.055C1481.35,820.35 1489.7,828.708 1500,828.708C1510.3,828.708 1518.65,820.35 1518.65,810.055L1518.65,684.711C1518.65,674.416 1510.3,666.057 1500,666.057C1489.7,666.057 1481.35,674.416 1481.35,684.711ZM1491.67,684.711L1491.67,810.055C1491.67,814.654 1495.4,818.388 1500,818.388C1504.6,818.388 1508.33,814.654 1508.33,810.055L1508.33,684.711C1508.33,680.112 1504.6,676.378 1500,676.378C1495.4,676.378 1491.67,680.112 1491.67,684.711Z"/>
                </g>
                <g transform="matrix(0.5,-0.866025,0.866025,0.5,-549.038,2049.04)">
                    <path d="M1481.35,684.711L1481.35,810.055C1481.35,820.35 1489.7,828.708 1500,828.708C1510.3,828.708 1518.65,820.35 1518.65,810.055C1518.65,810.055 1518.65,684.711 1518.65,684.711C1518.65,674.416 1510.3,666.057 1500,666.057C1489.7,666.057 1481.35,674.416 1481.35,684.711ZM1491.67,684.711L1491.67,810.055C1491.67,814.654 1495.4,818.388 1500,818.388C1504.6,818.388 1508.33,814.654 1508.33,810.055L1508.33,684.711C1508.33,680.112 1504.6,676.378 1500,676.378C1495.4,676.378 1491.67,680.112 1491.67,684.711Z"/>
                </g>
                <g transform="matrix(0.866025,-0.5,0.5,0.866025,-549.038,950.962)">
                    <path d="M1481.35,684.711L1481.35,810.055C1481.35,820.35 1489.7,828.708 1500,828.708C1510.3,828.708 1518.65,820.35 1518.65,810.055L1518.65,684.711C1518.65,674.416 1510.3,666.057 1500,666.057C1489.7,666.057 1481.35,674.416 1481.35,684.711ZM1491.67,684.711L1491.67,810.055C1491.67,814.654 1495.4,818.388 1500,818.388C1504.6,818.388 1508.33,814.654 1508.33,810.055L1508.33,684.711C1508.33,680.112 1504.6,676.378 1500,676.378C1495.4,676.378 1491.67,680.112 1491.67,684.711Z"/>
                </g>
            </g>
        </g>
    </g>
</svg>
